<svg xmlns="http://www.w3.org/2000/svg" viewBox="0 0 2435.34 1083.29"><defs><style>.cls-1{opacity:0.1;}.cls-2,.cls-3,.cls-4{stroke:#000;stroke-linejoin:round;}.cls-2{stroke-width:1.42px;}.cls-3{stroke-width:0.78px;}.cls-4{stroke-width:0.34px;}</style></defs><title>Ресурс 11</title><g id="Слой_2" data-name="Слой 2"><g id="BACKGROUND"><g class="cls-1"><g id="Layer_2" data-name="Layer 2"><path class="cls-2" d="M2241,882.16c-28.29,29.69-47.4,65.91-69.38,100.1-21.42,33.31-48.55,64.73-66.06,100.32l0,0c16.12-36,44.48-67.62,65.68-100.54,22.05-34.22,67.21-98.08,69.44-100.09"/><path class="cls-2" d="M1980.83,1048.63c11.83-6.5,23.51-13.4,35.08-20.59-11.92,7.07-23.8,13.88-35.44,20.3Z"/><path class="cls-2" d="M2110.31,965.58c16-12,33.17-24.46,50.92-36.53-48.62,32.37-96,68.31-145.32,99C2048.69,1008.57,2081.7,987,2110.31,965.58Z"/><path class="cls-2" d="M2161.23,929.05c24.31-16.19,48.94-31.46,74.29-44.75C2210.88,896.79,2185.54,912.51,2161.23,929.05Z"/><path class="cls-2" d="M1886.15,998.79c1.3.37,2.61.74,3.91,1.13,72-21.43,143.94-42.9,214.57-68.37,38.82-14,81.4-30.75,121.37-44.62-66.39,21.66-135.34,48.4-201.27,69.71C1978.75,971.5,1932.42,985.08,1886.15,998.79Z"/><path class="cls-2" d="M2241,881.83c-4.94,1.65-9.95,3.35-15,5.1q7.41-2.41,14.79-4.75Z"/><path class="cls-2" d="M2240.41,881.31c18.46-37.32,44.05-71,66.35-105.93,26.83-42.08,54-84.74,78.27-128.31,10.64-19.09,24.93-36.77,33.17-57l.2.09c-12.43,35-42.54,74.38-62.92,106.32-16.62,26.07-31.45,53.29-48.17,79.31-22.43,34.89-47.65,68.56-66.45,105.69"/><path class="cls-2" d="M2239.74,881.75c6.23-35.27,27.67-74.3,41-107.16,27.88-68.75,48.44-139.3,79.19-207.08,13.49-29.74,24.57-60.25,37.37-90.25,7-16.31,20-35.47,22.1-53.05l.2.06c-1.21,17.71-14.38,37.14-21.33,53.39-12.83,30-23.89,60.52-37.43,90.25-31.53,69.24-51.11,137.64-79.43,207-13.49,33-34.43,71.21-41.31,106.53"/><path class="cls-2" d="M2241,882.32c9.41,24.06,13.14,55.17,17.2,80.48,5,31.43,11,62.66,16.41,94l-.14,0c-10.58-52.26-15.85-125.7-33.84-174.39"/><path class="cls-2" d="M2240.3,881.52c44.1,27.45,84.44,68.65,120.89,105.13,16.4,16.43,39,30.92,50,51.66l-.06,0c-12.07-20.19-33.85-34.86-50.35-51.34-36.48-36.44-76.48-77.73-120.48-105.33"/><path class="cls-2" d="M2240.47,881.12c37.2-.54,76.71,5.11,113.82,6.43,18.21.64,41.4-4.68,58.66,1.11l0,.15c-20-4.75-42.94.38-63.57-1-35.37-2.41-73.76-6.82-109.29-6.31"/><path class="cls-2" d="M2251.7,222c19.22-5.42,40.52-6,60.27-9.63,26.47-4.82,52.54-12.68,79-17.54,4.62-.85,35.84-8.27,37.59-5.56l-.1.16c-1.35-2.48-12,1.62-13,1.89-8,2.12-16.2,2.49-24.34,4-26.47,4.85-52.55,12.74-79.06,17.47-19.78,3.52-41,4.25-60.27,9.52"/><path class="cls-2" d="M2252.49,222c32.27-52.57,69.84-105.64,106.38-155.31,13.4-18.22,24.09-40,40.46-55.79l.29.27C2383.4,27,2372.74,49,2359.39,67.14c-36.5,49.69-73.48,103-106.34,155.17"/><path class="cls-2" d="M2252.45,221.82c8-60.64,6.1-130.69,13.36-191.24l.13,0c-5.7,60.69-6,131.06-13.93,191.68"/><path class="cls-2" d="M2252.13,221.73c40.09,137.86,116.41,265.53,182.5,391.61l-.2.15c-30.27-51.3-56.29-103.49-82.78-156.9-12.73-25.68-29.1-49.55-41.33-75.48-22.7-48.11-44.22-107.9-58.84-158.89"/><path class="cls-2" d="M2252.24,221.12c14.13,121.31,45.67,248.8,89.23,362.54,17.84,46.55,38.17,99,68.49,139.17l-.22.16c-30.69-40.12-50.95-92.34-68.87-139-43.62-113.72-75.43-241.06-89.15-362.43"/><path class="cls-2" d="M2253.11,222.22C2208.54,154.08,2184.85,65.63,2133.9.79l.11-.08c52,63.89,74.82,152.8,119.16,221"/><path class="cls-2" d="M2252.13,222.11c-27.08-27.25-65.14-51.25-93.61-76.8-35-31.44-68.18-66.18-105.11-95.81-.25.06-.48.15-.72.2,37,29.84,70.29,64.47,105.46,96.06,28.45,25.57,90.86,72.52,94.09,76.55Z"/><path class="cls-2" d="M2251.65,222c-43.94-12.14-79.33-32.37-119.65-52.39-19.62-9.75-42.29-15-62.59-23.7-35.57-15.28-69.68-33.48-104.56-50.17-7.66-3.67-15.33-7.56-23-11.53l-.55.31c7.78,4,15.56,8,23.34,11.68,34.89,16.69,69,34.92,104.59,50.18,20.28,8.7,42.89,14,62.51,23.7,39.28,19.44,76.57,43.56,120.3,52.37Z"/><path class="cls-3" d="M2384.11,1006.88c-28.58-2.72-61.17-3.4-86.66,12.64-6.43,4.05-19.67,13.56-22.44,21.07l-.05,0c2-7.62,16.16-17.44,22.33-21.32,16-10,35-12.12,53.34-14.15,10.68-1.19,23-1.86,33.35,1.9"/><path class="cls-3" d="M2362.62,989.47c-23.46-8.37-57.33-4-78.22,9.69-6.12,4-8.48,11.36-13.12,16.71-1.21,1.4-1,4.67-2.88,4.75l-.16-.11c1.14.36.67-2.34,1.38-3.3,1.78-2.44,3.53-4.71,5.1-7.31,3.77-6.26,8.09-10.81,14.83-14,21.31-10.19,50.55-15.23,73.13-6.63"/><path class="cls-3" d="M2328.66,954.51c-21.87-2.22-35.62,5.26-51.81,19C2273,976.71,2268,981.29,2266,986a15,15,0,0,0-.94,5.9c0,.49.45,2.55.36,2.41l-.09.07c-.21.25-.67-2.13-.71-2.53a15.21,15.21,0,0,1,1-6.09c2.37-5.76,8.45-10.5,13-14.43,15.23-13.26,29.57-19.59,50.14-17.21"/><path class="cls-3" d="M2290.56,922.33c-12,4.61-23.08,13.57-27.84,26-1.72,4.49-.43,10.5-2.46,14.69h-.09c1.82-4.34.47-10.23,2.21-14.84,4.71-12.54,16-21.69,28.11-26.2"/><path class="cls-3" d="M2267.56,901.29c-11.59,3-11,10.66-15.34,19.25h-.08c2.94-9.27,4.05-16.91,15.39-19.67"/><path class="cls-3" d="M2257.2,893.67c-5.13,2.78-8,5.29-8.63,11.13h0c.13-6.25,2.92-8.63,8.56-11.46"/><path class="cls-3" d="M2250.61,889.17c-3.22,3.16-4.3,4.35-5.73,8.15l-.19-.07c1.16-4.27,2.19-5.19,5.77-8.59"/><path class="cls-3" d="M2250.65,889.06c-.23-2.68.4-5.87,2-7.82l.1.12c-.38,2.44-2.05,4.66-1.79,7.66"/><path class="cls-3" d="M2251.87,881.36c-4-5.24-4.67-7.61-3.51-13.62.13-.7-1.42.63-2.09.4-1.91-.67-2.23-1.87-3.06-2.92v-.11c6.13.19,5,10.79,9,16"/><path class="cls-3" d="M2242.57,866c-6,6.08-12,12-18.48,17.64a52.49,52.49,0,0,1-7.51,5.14c-1.19.72-5,1.7-3.68,2,2.57.54.85,5.25.72,4.46,0-.34,2.83.24,3,.32,1.23.54,8.08,7.72,6,7.58l-.28-.13a8.42,8.42,0,0,0-4.55-6.26c-1.35-.76-5.05.05-4.44-1.38.94-2.2-1-3.21-.74-4.84.18-1,7.65-4.59,8.53-5.2,7.88-5.5,14.52-12.78,21.33-19.48"/><path class="cls-3" d="M2244.2,897a52.57,52.57,0,0,0-15.48,3.74c-1.06.41-4.44,3.26-5.28,3.15l-.06-.18c4.39-5.15,14.54-7,20.8-7"/><path class="cls-3" d="M2250.85,921.78c-11-2.47-22-2.3-33-1-3.93.48-7.55,5.52-10.85,5.92l-.09-.1c14.28-7.47,27.18-9.07,44.09-5.21"/><path class="cls-3" d="M2257.73,967.94c-17.43-10.17-36.15-12-55.59-11.45a30.8,30.8,0,0,0-13.7,4.26c-1,.61-5.09,3.67-6,3.35l0-.13c1.26,2.61,4.91-3.12,7.55-4.31a40.59,40.59,0,0,1,16-3.76c18-.49,36.13,2.41,52,11.79"/><path class="cls-3" d="M2264.09,1004c-18.77-12.25-38.27-21.14-59-29.3-6.72-2.66-13-1.83-19.85-2.67-1.5-.19-8.18.94-8.07.6h.11c-1.91,1.91,5.33-1.51,8-1.2,6.88.82,13.26.17,20,2.82,20.7,8.21,40.29,17.07,58.95,29.55"/><path class="cls-3" d="M2267.11,1020.53c-23.78-12.76-51.32-20.32-77.5-26-3.86-.83-21.93-5.7-25.06-1.36l-.11-.37c1.83-4.33,22.44.7,25.28,1.31,26.1,5.64,54,13.11,77.48,26.25"/><path class="cls-3" d="M2266.84,1029.21c-32.16-15.67-68.41-19.74-103.7-16.78-6.43.54-12.11,4.8-17.67,5.5l-.16-.22c34.73-17.31,88.26-5.21,121.67,11.25"/><path class="cls-3" d="M2402.38,1024.1c-13-29.4-11.42-61.33,7.39-88.78,6.42-9.37,16.95-9.22,24.45-16.27l.06.08c-7,7.38-17.79,7.21-24.12,16.4-18.87,27.39-20.36,59.06-7.51,88.46"/><path class="cls-3" d="M2375.08,999.31c-25.28-43.81-.35-92.53,38-118.77l.08.12c-37.1,27.5-63.22,74.17-37.77,118.46"/><path class="cls-3" d="M2353.38,978.27c-16.56-20.4-21.79-40.87-11-65.81,3.17-7.34,8.4-16,14.07-21.65,1.25-1.25,4.51-5.61,6.71-3.91l-.09.25c-1.24-1.86-5.62,3.37-6.24,4-5.63,5.61-10.83,14.23-14,21.47-10.87,24.71-5.43,45.12,10.79,65.45"/><path class="cls-3" d="M2309.64,935.82c-4.23-11.87-3.66-25-2-37.33.22-1.6,6-15.65,7.88-12.85l-.18.21c-2.87-.5-6.12,8.58-6.76,11.06-3.11,12-2.66,27.11,1.37,38.7"/><path class="cls-3" d="M2298,926.77c-10.13-9.33-10.49-19.69-7.92-32.27.93-4.6,6.78-15,12.71-11.55l-.05.17c-6-1.45-11.12,6.6-12.21,11.48-2.79,12.49-1.87,22.44,7.73,31.87"/><path class="cls-3" d="M2269.59,902.28c-4-4.14-5.24-12-2.9-17.42.91-2.1,6.65-7.94,8.43-3.45l-.25.29c-10.55-2.51-10.16,14.52-4.93,20.18"/><path class="cls-3" d="M2256.08,891.11c-.28-1,1.06-14.38,4.46-10l-.14.28c-4.5.19-4.91,5.59-3.8,9.42"/><path class="cls-3" d="M2138.39,1027.48c-3-15.73-10.33-30.28-25.11-38.5-5-2.76-10-6.35-15.54-7.67-1.3-.31-11.19.22-11.21-1l.13-.16c.14.6,10.08.29,11.23.56,5.65,1.33,10.76,5,15.75,7.78,14.81,8.39,22.27,23.11,25.2,39"/><path class="cls-3" d="M2147.23,1014.86c.61-14.63-11-30.77-22.46-38.94a38.21,38.21,0,0,0-13.84-6.25c-2.35-.47-8.83.29-7.08-1.35l-.09.24c-1.91-.51,5,.07,6.21.33a44.1,44.1,0,0,1,13.78,5.51c12.36,7.45,24.94,25.66,24,40.49"/><path class="cls-3" d="M2167.54,985.81c-.59-20.92-15.76-36-36.92-36.48l0-.55c21.13-3.15,37.38,18.51,37.57,37"/><path class="cls-3" d="M2180.74,968.21c-1.27,3.74-.68-4.76-.63-5.44a34.9,34.9,0,0,0-1.45-13.56c-4.19-12.25-13.58-14.93-24.51-18l0-.25c10.52-3.7,23.15,10.89,25.53,19.62a37.09,37.09,0,0,1,1.11,12.29c-.08,1-1.92,8-.11,5.21"/><path class="cls-3" d="M2188.39,953.09c1.34-11.45-5.61-20.59-15.2-25.59-1.4-.74-8.23-4.27-9.47-3.18l-.28-.24c1.59-2.24,9.46,2.17,11.19,3.2,9.25,5.48,16.08,14.31,14.45,25.91"/><path class="cls-3" d="M2209.6,929.29c-1.49-4.39,1.4-9.9-1.16-14.23-3.59-6.07-11.54-4.66-14-8.08l.16-.19c1.73,1.82,6-.07,8.64,1.66,8.53,5.64,6,12,6.17,20.6"/><path class="cls-3" d="M2195.55,907.34c2.7-4.62,4.33-7.49,0-11.07l.18-.22c5,3.33,2.9,7,0,11.54"/><path class="cls-3" d="M2168.93,923.25c3.59-3.41,12.91-17.38,2.07-18.11v-.21c12-.78,1.73,15.41-1.83,18.6"/><path class="cls-3" d="M2157.8,930.54c4.93-7.58,7.23-12.9,1.84-19.58l.1-.18c7.19,5.64,3.22,13.06-1.55,20"/><path class="cls-3" d="M2132.68,947.12c4.9-6.3,11.81-14,13-22.22.69-4.69-.32-10.29-6.53-9.27l0-.28c5.94-2,8,3.59,7.58,8.34-.84,8.81-8.29,17.19-13.74,23.61"/><path class="cls-3" d="M2106.28,966.08c4-7.73,8.94-22,2.28-30.19-2.15-2.64-5-1.61-7.39-3.4l.12-.22c2,1.13,4.36.25,6.43,1.65,9.62,6.52,2.68,25.59-1.09,32.34"/><path class="cls-3" d="M2088.19,977.65c3.73-10.73,8.84-23.2,2.9-34.19-1.63-3-5.16-3.46-6.66-5.82l.05-.06c1.46,2.06,5.06,2.13,6.83,5,6.81,11,1.16,24.43-2.81,35.23"/><path class="cls-3" d="M1925.53,966.07c7.53-1.11,15.12.77,22.72,3.42C1940.83,966.51,1933.33,964.5,1925.53,966.07Z"/><path class="cls-3" d="M1906.19,977c-6.29,6.72-8.91,15.72-12.72,24l.29.1c4.27-8,6.56-16.89,12.92-23.55,6.52-6.84,12.78-10.24,18.85-11.46C1919,967,1912.58,970.19,1906.19,977Z"/><path class="cls-3" d="M1948.25,969.49c15,6,29.62,16,45.51,8a29.27,29.27,0,0,0,7.69-5.5c-.15.12-.28.26-.44.38C1983.64,985.9,1965.9,975.64,1948.25,969.49Z"/><path class="cls-3" d="M2001.45,972c4.07-3.37,6.66-8.35,9-13.5C2007.93,963.5,2005.35,968.16,2001.45,972Z"/><path class="cls-3" d="M2108.09,931.12c15.41-30.61-22.61-35.54-46.71-27.38-17.34,5.88-36.16,27.45-45.2,42.53-2.19,3.65-3.89,8-5.78,12.26,1.94-3.89,3.82-8,6.24-12,9-14.91,27.75-36.43,44.93-42.23,24.17-8.17,60.28-4.05,46.52,26.43Z"/><path class="cls-3" d="M2102,931.6c2.89-20.84-18.95-27.51-35.66-22.47-15,4.53-29.55,13.45-38.9,26.29-6.69,9.18-11.13,20-19.26,28.09-4.82,4.78-17.77,14.67-24.66,9.13l0-.09c7.56,4.07,19.05-4.18,24.21-9.39,8.1-8.16,12.59-18.84,19.29-28.07,9.34-12.85,24-22,39.11-26.52,16.81-5,39.45,1.93,36,23.06"/><path class="cls-3" d="M2252.45,839c-11.26,14.87-24.28,30.33-38.75,42.08-1.64,1.34-17.72,16.32-17.89,15.79l.12-.09c0,.09,5.5-4.69,6.56-5.58,4.42-3.74,8.61-7.94,12.94-11.85a295,295,0,0,0,36.83-40.45"/><path class="cls-3" d="M2269,803c-21.33,23.33-44.51,45.09-66.22,68.09-6.52,6.9-15.66,13.51-21,21.31-1.22,1.82-6.94,13.12-7.06,11.51h.05c-.07.34,5-9.36,6.71-11.77,5.8-8.36,15.66-15.89,22.89-23.11,21.74-21.7,43.6-43.57,64.39-66.13"/><path class="cls-3" d="M2279.24,778.41c-26.36,30.89-57.7,58.13-86.11,87.19-9.18,9.4-15.83,19.31-23.16,30-2.29,3.35-5.17,6.32-7.69,9.37-.85,1-2.62,6-3.3,5.46l.08-.12c.57,1.76,1.28-3.51,2.33-5,2.4-3.48,5.64-6.44,8.09-10,7.37-10.73,14.06-20.65,23.3-30,28.47-29,59.77-56.19,86.21-87"/><path class="cls-3" d="M2288.26,754.75c-27,17.75-49.7,42.12-71.34,65.93-12.65,13.92-22.19,30.35-35.63,43.67-11.44,11.34-20.39,22.91-29.44,36-1.75,2.52-10.77,17.46-11.5,16.53l.17-.16c.36.5,2.88-4.52,3.51-5.81,2.24-4.53,5.69-8.57,8.54-12.72a231.85,231.85,0,0,1,28.27-34.3c13.43-13.32,23.09-29.66,35.7-43.61,21.51-23.79,44.43-48.42,71.57-65.77"/><path class="cls-3" d="M2374.23,664.93c2.64,3,0,11.91-.17,15.73-.75,13.56,2.08,27.72,3.48,41.18,3.64,34.83,17.49,65.88,41.49,91.6l-.1.1c-31.13-29-39.52-68.7-43.89-108.93-.84-7.75-1.9-16.19-1.47-24,.22-4.19,2.64-11.89.7-15.63"/><path class="cls-3" d="M2371.65,673.24c-18,38.53-5.48,96.84,19.2,129.53,9.59,12.71,21.87,20.53,32.85,31.5l0,.05c-11.85-10.43-23.52-18.34-33.26-31.25-24.62-32.6-37.7-91.65-19-130"/><path class="cls-3" d="M2356.57,699c-15.3,55.52,2.58,125.72,41.38,168.32,8,8.78,18.07,15.36,26.79,23.36l-.08.1c-9.09-7.61-19.22-14.22-27.2-23.07-38.41-42.59-57.23-113.39-41.15-168.79"/><path class="cls-3" d="M2341.89,717.29c-9.66,40.45-6.65,81.86,10.07,120.14,5.56,12.75,12.93,24.09,21.18,35.16,2.19,2.95,5,8.57,8.44,10.21,1.08.52,6.39,4.11,6,4.3l-.11-.08c1.81,1.33-3.74-2.51-5.76-3.49-3.92-1.89-6.68-7-9.21-10.48-8.2-11.18-15.64-22.55-21.16-35.39a188.17,188.17,0,0,1-9.83-120.53"/><path class="cls-3" d="M2306.26,780.23c-9.39,28.19,14,69.1,30.31,91.07a71.16,71.16,0,0,0,14.15,13.83c1,.71,4.54,1,4.77,2.08l-.2.14c0-.05-6.34-2.44-7.21-3.42-4.18-4.73-9.76-8.42-13.32-14.06-14.41-22.9-39.7-61.5-28.81-89.79"/><path class="cls-3" d="M2288.21,802.93c-7.3,21.53.82,48.27,12.44,66.9,3.08,5,14.95,11.11,16,16.39l-.1.07c-.07-.51-4.21-3.25-4.82-3.84-4-3.9-8.6-7.34-11.64-12.28-11.61-18.86-19.91-45.65-12.25-67.37"/><path class="cls-3" d="M2274.83,827c0,16,4.39,29.87,11.4,44.12a35.4,35.4,0,0,0,7.31,10.43c1.44,1.35,7.21,2.76,5.25,2.68l0-.11c1.44-.59-3.35-.11-4.52-1.13a36.09,36.09,0,0,1-8.54-11.61c-7.06-14.38-11.58-28.28-11.32-44.41"/><path class="cls-3" d="M2265.82,838.53c-3.58,12.74,1.45,24.62,8.26,35.46,1.2,1.9,8.43,6.75,8.65,8l-.1,0s-8.34-6.51-9.13-7.76c-6.74-10.65-12.29-23.21-7.83-35.66"/><path class="cls-3" d="M2255.3,854.4c-.27,4.68-.4,12.24,2.14,16.67,1.28,2.23,9.35,7.47,9.55,9.09h0c-.13-.55-7.57-5.74-8.6-6.94-4.05-4.69-3.9-13.2-3.42-18.86"/><path class="cls-3" d="M2372.47,666.83c-25.45-3.08-22.1-50.56-24-67.76h0c2.09,17-1,64.23,23.94,67.49"/><path class="cls-3" d="M2369.84,668.32c-32.46,13.63-34.28-22-30.75-42.94h0c-3.1,20.8-1.63,56,30.61,42.74"/><path class="cls-3" d="M2373.1,671.1c-15.79,15.86-46.49,21.09-47.74-8.5-.47-11.14,6.18-20.55,10.3-30.44l.1.05c-4,9.84-10.52,19.27-10.08,30.32,1.18,29.42,31.56,24,47.26,8.42"/><path class="cls-3" d="M2370.81,676.6c-7.85,6.88-16.56,15.87-27,18-20.61,4.15-26.79-23.07-22.65-37.29l.12,0c-3.56,13.89,2,41,22.33,37,10.4-2.06,19.15-11,27-17.78"/><path class="cls-3" d="M2350.6,705.77c-8.17,10.14-19.2,22.84-32.28,27.23-17.66,5.92-21.06-10.39-17.28-23.38l.15,0c-12.41,48.55,38.13,9.48,49.23-4"/><path class="cls-3" d="M2378.68,516.36c-7.85-18.33-34.09-36.38-43.48-6.56-6.81,21.63-6.34,36.32-1.56,58.52h0c-5.58-22.21-5.88-37.05,1.11-58.77,9.61-29.9,36.42-12.52,44.21,6.77"/><path class="cls-3" d="M2371.3,491.74c-7.3-7.18-3.05-3.41-17.49-13-8-5.28-21.84.83-26,8.46-9.33,17.32-1.94,38-3.62,56.4h-.08c.88-18.5-6.44-39.5,3.23-56.82,4.38-7.84,18.5-14,26.75-8.47,14.44,9.71,10.19,5.87,17.44,13.15"/><path class="cls-3" d="M2337,438.52c-32.39-16.6-28.63,4.28-42.25,7.22l0-.06c17.47-8,14.37-22,42.46-7.39"/><path class="cls-3" d="M2303.41,365.74c-16.56,17.84-15.62,28-19.82,50.37h0c2.83-22.51,3.22-33.25,19.64-50.68"/><path class="cls-3" d="M2292.62,345.77c-7.75,9.79-16.58,22-17.06,35.31l-.11,0c-.13-13.55,9.05-25.89,16.94-35.68"/><path class="cls-3" d="M2286.87,322.35c-8.88,7.16-18,26-18.19,38.39l-.21,0c.14-12.76,8.84-31.43,18.29-38.7"/><path class="cls-3" d="M2277.34,318.3c-4.45,12.19-2,5.66-7.57,19.54l-.18-.06c5.43-14,3-7.4,7.35-19.71"/><path class="cls-3" d="M2357.86,67.84c-28.13,8.2-64.21,1.82-78.27-27.9l.14-.09c15,28.9,49.65,35.69,78,27.69"/><path class="cls-3" d="M2318.38,117.91c-32.17-13.61-46.14-49.74-45.28-83.19h.05c-.6,33.29,13.78,69,45.4,82.82"/><path class="cls-3" d="M2302.76,132.46c-27.82-26.51-37.66-55.17-29.39-93.25l.28,0c-8.05,37.84,1.81,66.53,29.27,93"/><path class="cls-3" d="M2292.7,156.29C2266.88,130,2260.2,87.62,2274.42,54l.24.08c-13.63,34-7.17,75.22,18.27,101.94"/><path class="cls-3" d="M2266.49,188.84c-5.31-14.42-8.76-21.15-9-35h0c.54,13.44,4.26,20.89,9.38,34.66"/><path class="cls-3" d="M2259.87,159.53c-12.47,5.09-34.56,5.23-43.67-6.42l.12-.16c9.31,11.2,30.68,10.88,43.26,6.64"/><path class="cls-3" d="M2262.1,89.1c-17,17.77-48.35,35.12-70.25,13.85l.11-.12c23,19.36,52,4.39,69.84-13.92"/><path class="cls-3" d="M2270.43,47.45c-15,18.37-65.16,55.21-90.19,35.23l.07-.16c34.14,17.15,65.51-17.07,90.28-35"/><path class="cls-3" d="M2240.56,221c4.28,6.35,15.43,16.75,15.28,25.1h0c-.15-8.27-11.2-18.56-15.42-24.95"/><path class="cls-3" d="M2210.29,206c18,20.08,44.27,47.53,51.67,74.31l-.08,0c-10.71-27.24-32.44-52.52-51.79-74.15"/><path class="cls-3" d="M2180.8,194.39c31.53,32.64,65.44,72.82,84.72,114.33l-.05,0c-22.28-41.57-53.33-79.44-84.77-114.46"/><path class="cls-3" d="M2164.3,184.28C2195,217,2221,254.09,2243.23,293c8.59,15,20.56,29.34,27.54,45.13l0,0a1155.93,1155.93,0,0,0-65.12-103.13C2193,217.26,2177,201.9,2164.39,184.2"/><path class="cls-3" d="M2139,174c20.14,28.25,44,53.66,63.18,82.85,15.11,23,27.45,47.67,41.46,71.3,7.58,12.81,17.83,24.13,26.27,36.35,2.54,3.67,8.47,9.6,7.84,14.27h-.18c-.9-6.2-7.14-11.94-10.48-17.1-7.38-11.41-17-21.49-24-33.23-20.67-34.88-40.48-69.36-63.44-102.83-12.18-17.76-30.15-33-40.52-51.72"/><path class="cls-3" d="M2208,185.71c15-4.1,14.51-21.78,11.48-34.12l.12,0c3.74,12.52,3.64,30.4-11.55,34.5"/><path class="cls-3" d="M2174.94,162.51c27.57-5.8,20.73-30,20.7-51.51h0c.88,21.95,7.49,46.57-20.95,51.89"/><path class="cls-3" d="M2165.13,149.76c23.37-6.7,34.7-38,27.42-59.58l.24-.09c8.69,21.36-3.75,54.11-27.51,60.23"/><path class="cls-3" d="M2140.18,127.35c29-4.73,34.81-40.26,37.36-63h.09c-1.11,22.93-8.19,59.87-37.63,63.48"/><path class="cls-3" d="M2113.12,100.2c28.72-3,43.64-42.23,43.24-66.87h0c1.53,24.94-13.69,65.06-43.29,67.33"/><path class="cls-3" d="M2092.8,85.79c25.12-6.62,49.32-24.23,50.4-52.82h.11c2.29,29.39-26.33,47.67-50.93,52.79"/><path class="cls-3" d="M2210,185.67c.29,11.6-8.63,21.76-20.72,16.11l.05-.23c11.85,3.83,20.44-3.84,20.06-16"/><path class="cls-3" d="M2190.83,174.94c-7.18,8.39-13.95,14.89-25.52,11l0-.13c11.33,3,17.74-2.83,25-10.91"/><path class="cls-3" d="M2177.92,159.93c-3.41,11.39-13.66,19.52-25.41,17.47l0-.14c11.42,1,21-6.36,24.89-17.22"/><path class="cls-3" d="M2164.66,153c-8.2,15.71-19.79,16.59-34.07,15.55l.06-.27c13.85.52,25.38-.77,33.35-15.54"/><path class="cls-3" d="M2140.85,128.59c1.15,17.46-9.75,34.27-27.88,36.37l-.06-.23c17.8-3.85,27.62-18.09,27.31-36.12"/><path class="cls-3" d="M2111.33,98.52c8.1,23.83,1.39,56.54-28.9,53.94l0-.44c29.41-1.57,35.5-27.05,28.35-53.25"/><path class="cls-3" d="M2095.21,85.89c-.15,8.78-.85,14.06-2.26,24.27-1.88,13.62-15.72,50.48-35,33.55l.08-.15c18.9,15.15,32.16-20.54,33.94-33.5,1.22-8.85,1.82-15.87,2.59-24.17"/><path class="cls-3" d="M2126.81,119c4.13,15.34,11.51,45.2-12,48.15l0-.2c21.64-7.43,16.37-29.12,11.69-47.7"/><path class="cls-3" d="M2118.07,166.57c-12.14,19.06-36.37,26.5-55.45,10.86-26.44-21.66-24-63.37-62.4-75.07-23.91-7.29-54.41,18.12-75.91-3.49a32.24,32.24,0,0,1-5.86-8.47q-.48.34-1,.66a32.66,32.66,0,0,0,6.21,8.78c22.16,21.57,51.88-3.89,76.14,3.44,38.15,11.53,35.89,53.42,62.28,74.95,19.4,15.83,44.24,8,56.31-11.44Z"/><path class="cls-3" d="M2381.4,506c2.55-40.29,21.55-76.21,44.41-108.66l.15.1c-22,33-41.07,68.3-44.12,108.53"/><path class="cls-3" d="M2379.36,510c-13.14-73.93-1.61-184.7,54-240l.17.15c-56.46,59.43-67.09,162.48-53.81,239.84"/><path class="cls-3" d="M2364.34,473.77c-5.82-89.32,5.4-199.22,68.17-269l.07.06c-61,73.2-73.49,177.3-67.81,268.86"/><path class="cls-3" d="M2353.08,452.81c-13.69-69.92-16.7-126.08,10.4-192.06,11.94-29.06,28-56,54.41-73.86l.07.08c-83,61.34-81.6,175.89-64.53,265.76"/><path class="cls-3" d="M2311,379.23c-3.71-14.09-1.83-28.55-1-43,2.24-38.85,13.41-69.24,32.89-102.6,5.9-10.1,11.79-19.27,19.39-28.1,1.74-2,3.74-6.93,6.28-7.56v0c-7.69,4.4-21.13,28.79-25.27,35.88-26.19,44.91-39,92.8-32.6,145.18"/><path class="cls-3" d="M2296.55,340.43c-7.11-32.69-.81-73.31,11.74-104.32,2.13-5.26,10-24.37,17-25.49l0,.11c-7.43,5.34-13,17.51-16.26,25.65a195.76,195.76,0,0,0-13.87,76.51c.63,23.31-.71,15.17,1.75,27.47"/><path class="cls-3" d="M2282.37,308.52c-8.16-32.24-8.48-73.85,16.51-99.51l.08.06c-23.75,26.75-24.09,66.58-16.24,99.35"/><path class="cls-3" d="M2267.67,270c-1.61-10.53-3.47-42.64,9.79-50.88l.12.12c-12.31,9.72-11.17,39-9.5,50.65"/><path class="cls-3" d="M2292.41,217.16c-3.73-3.24-20.78-18-15.35-26.38l.08,0c-3.87,9.1,10.92,22,15.51,26.06"/><path class="cls-3" d="M2275.23,215.52c-4.25-4.58-12-11-10.44-18.28l.16,0c-1,7.13,6.38,13.4,10.51,17.93"/><path class="cls-3" d="M2309.73,212.63c-15.52-15.28-20.38-47.3-3.72-63.25l.06.05c-15.83,16.58-11.6,47.41,3.83,63"/><path class="cls-3" d="M2326.48,211.66c-14.51-22.85-15.11-53-8.14-78.7.76-2.77,4.19-21,8.15-20.57l.09.24c-3-.54-7.62,20.35-8.18,22.47-6.56,24.84-5.27,54.27,8.33,76.3"/><path class="cls-3" d="M2365.17,199c-16.85-30.4-23.4-63.45-18.72-97.6,1.21-8.83,3.77-21.09,9.69-28.13l.15.1c-5.39,7.56-7.9,19.16-9.22,28.14-5,33.81,2.2,67.09,18.44,97.26"/><path class="cls-3" d="M2395.19,191.67c-7.7-10.24-11.17-23.36-14.6-35.61-10.35-37-14.53-83.19,11.29-114.52l.09.06c-23.66,33.12-21.17,76.52-10.65,114.25,3.4,12.2,6.79,25.11,14.15,35.55"/><path class="cls-3" d="M2414.53,194.12c-19-35.8-35.11-78.62-22.3-119.69,3.32-10.64,9.85-20.49,15.79-29.83l.13.08c-5.62,9.44-11.9,19.28-15.16,29.85-12.64,41.11,3,83.39,21.78,119.38"/><path class="cls-3" d="M2259.76,903.43a9.63,9.63,0,0,0,2-6.9c-.79-19.4-24.74-11.16-13.95,2.94a14.45,14.45,0,0,0,7.76,4.71c1.22.26,7.12-2.2,4.44-.65a8.07,8.07,0,0,1-3.6,1.5c-3.17.05-7.38-2.89-9.22-5.28-8.83-11.45,6.18-23.71,13.63-10a14,14,0,0,1,1.51,6.85"/><path class="cls-3" d="M2248.56,886.51c.46-3.91-.38-8.71-3.92-11.25-1.8-1.29-6.42-3.53-7.18.21-.83,4,.27,8.75,3.47,11.52,2.49,2.16,8.49-4.52,7.91-.11-.7,5.36-5.83,2.91-8.58.7-3.5-2.83-5-8.5-3.7-12.8s6.52-2.09,8.84-.29"/><path class="cls-3" d="M2258.74,886.37c15.2-9,26.37,19.07,12.09,26.41l-.09-.15c13.53-7.51,3.49-34-11.77-26"/><path class="cls-3" d="M2256.39,884.57c2.7-4.54,7.18-10.44,13.16-10.15s16.9,6.15,13.41,13.74l-.09,0c1.8-8.11-8.56-15-15.93-12.82-4.62,1.38-7.72,5.46-10.27,9.29"/><path class="cls-3" d="M2253.88,883.45c7.21-7.17,14.49-21,7.14-30.87l.11-.07c7.83,10.18.54,23.92-7.1,31.28"/><path class="cls-3" d="M2245.29,877.29c14.14-14.46,5.68-39.41-15.69-40.43h0c21.43,1,31.46,26.38,15.83,40.85"/><path class="cls-3" d="M2238.12,883.28c-2.64,5.33-10.36,4.29-15.3,3.18-11.31-2.54-20.59-8.36-17.44-21h0c-2.9,15.44,20.65,28.49,32.77,18.12"/><path class="cls-3" d="M2243.07,886.83c-5.72,6.73-13.5,12.84-23.15,11.21-3.85-.65-13.39-6-9.5-11.33l.26.09c-1.53,6.31,5.65,10.22,10.94,10.57,8.9.59,15.33-4.33,21-10.47"/><path class="cls-3" d="M2241.38,891.81c-9.5,4.81-25,22.93-7.63,30.16l-.08.15c-18.9-6.64-2.49-26.1,7.5-30.79"/><path class="cls-3" d="M2244.78,887.88c-3.58,14-.45,33.45,15.45,38.77,4.88,1.63,10.52-.12,15.56.27v.16c-23.41,4.58-39.07-17.3-31.31-39"/><path class="cls-4" d="M2259.93,903c8.1-4.67-2.09-19.7-9.23-16.32-7.72,3.66,1,19.68,8,15.08s-4.56-20.34-11.11-13.86c-4.36,4.31,1.08,10.19,4.32,12.93,1.77,1.49,4.53,2.76,6.56.85,3.73-3.54.13-9.14-3.07-11.58-1.38-1-3.76-2.71-5.49-1.44-3.86,2.84.81,9.37,2.94,11.64,1,1.07,3.14,2.32,4.61,1.37,5.12-3.3-3-14.46-7.86-11.88-1.05.57-.62,2.29-.41,3.11.66,2.56,2.88,9,6.56,7.23,4.61-2.25-1.19-11.27-5.18-10.75-1.36.17-.63,2.31-.34,3,.61,1.47,3.43,7.15,5.86,5.54s-3.24-7.49-5.13-5.65c-1.34,1.31,2.86,6.85,4.31,5.68,1.87-1.53-1.84-5.82-3.66-5.53s2.59,6.5,3.3,5.69c1.22-1.38-2.48-6-3.33-4.9-.69.86,1.53,4.48,2.33,4.1.61-.29-1.12-4.06-2.48-3.12-2.28,1.57,2.41,8.9,5.22,7.87,1.66-.6,2.12-3.21,2.22-4.69.28-4-2.4-7.5-6-9.1-1.47-.65-3.84-1.54-5.24-.24-4.88,4.56,4.95,16.11,10.72,12.53s-1.72-15-7.68-12.94-.06,12.19,4.37,12.58c7.06.62,2.15-10.23-2.94-10.41-4.38-.16-.48,7.27,1.47,8.12,1.32.57,0-3.62-1-4.1l.15-.15c1.5.52,2.42,5.25.61,4.43s-5.38-6.45-2.68-8.25c4.65-3.1,12.15,9.08,6.07,10.4-5.31,1.16-11.91-7.69-7.56-12,5.48-5.44,16,8.21,9.18,12.52-6,3.79-16.33-8.51-10.83-13,1.52-1.24,3.93-.38,5.48.3,4.26,1.88,9.24,9.84,4.35,13.89-3.61,3-8.69-6.72-6-8.07,1.83-.9,3.31,3.43,2.37,3.59-1.22.22-3.27-3.52-2.21-4.5,1.45-1.32,5.09,4.17,3.21,5.36-1.2.76-5.6-5.76-3.11-6.17,2.12-.35,5.85,4.47,3.53,6-1.84,1.2-6-4.58-4.3-6,2.33-1.93,8,4.5,5.16,6s-8.19-6.4-6.08-8.61c1.09-1.15,3.32.51,4.11,1.19,2,1.73,5.67,7.84,1.65,9.63-3.77,1.69-6.24-4.65-6.87-7.36-.25-1.05-.55-2.78.7-3.38,5.19-2.5,13.29,9,7.88,12.33-1.57,1-3.68-.32-4.76-1.47-2.22-2.38-7.2-9.17-2.89-12,1.88-1.23,4.27.36,5.75,1.51,3.27,2.53,6.93,8.39,3,12-2.61,2.37-5.57.22-7.68-1.55-3.29-2.76-7.64-8.58-3.48-12.62,6.82-6.63,18.64,9.55,11.37,14.28-7.74,5-16.42-13.29-7.5-15.72,7.17-1.95,17.17,12.81,8.7,16.84"/><path class="cls-4" d="M2247.72,887c.71.14,1.53-3.88,1.53-4.54,0-3.61-5.44-12.93-10.07-9-4.08,3.45-.15,9.66,2.58,12.45,1,1,3,3.26,4.58,2.13,4.89-3.45-1.56-17.24-7.46-13.8-3.63,2.12,2.65,9.39,4.35,10.87.67.58,2.05,1.58,2.92.76,3.8-3.58-3.06-15.21-7.38-12-2.58,1.88,3.5,9,4.56,10.26.6.73,1.87,2.59,3.12,1.88.92-.52.69-2.65.56-3.42-.43-2.41-4.9-9.48-8.37-7.2-2.27,1.49,4.31,10.37,6,9.38,2.92-1.71-3.17-9.42-6-8.94-1.23.21,4.54,6.93,4.92,7.38,0,0,1.28,1.75,1.76,1.3,1.53-1.45-5.09-9.49-6.48-8-.91,1,2.11,4,2.69,4.62s2.09,2.22,2,1.41a4.6,4.6,0,0,0-.84-1.74,11.36,11.36,0,0,0-.82-1.11,11.78,11.78,0,0,0-.92-1.07c-3.37-3.36.16,2.57,1.42,2.32.16,0-3.19-4-3.4-3.53-.37.74.89,1.39,1.36,2.06s5.47,7.61,6.2,6.53c1.83-2.73-1.81-8.41-3.75-10-1.09-.87-3.61-2-4.74-.49-2.25,3,.8,7.45,2.76,9.67.78.88,2.41,2.85,3.84,1.76,3.34-2.57-.39-8.88-2.77-10.47-.88-.59-3-1.79-4.08-.73-2.06,2.07,3.06,7.86,4.24,9.24.29.34,1.88,2.65,2.82,1.52,2.15-2.59-.65-8.23-2.78-9.91-.81-.63-2.69-1.78-3.78-.9-3.29,2.66,3.4,11.16,6.3,11.68,2.43.45,2.84-4,2.9-5.28.14-3.42-1.48-5.86-4.94-6.3l0-.11c4.92-.08,5.75,5.18,4.73,9-.31,1.13-1.26,3.07-2.79,2.82-3.16-.53-10-9.36-6.23-12.07,4.15-3,9.48,8.21,6.55,11.24-1,1.06-2.62-1.08-3-1.52-1.32-1.5-6.48-7.43-4.05-9.61,1.2-1.08,3.28.08,4.3.77,2.44,1.66,6.11,8.21,2.55,10.73s-11.19-10.31-6-12.26c4.41-1.65,10.82,7.87,7.8,11.36-1,1.12-5.79-5.85-6.3-6.59s-1.84-1.87-1.11-2.32c.94-.56,3.38,3.79,3.23,3.8-1.75.1-4.53-6-1.18-2.56a10.72,10.72,0,0,1,.92,1.1,10.33,10.33,0,0,1,.81,1.15,3.46,3.46,0,0,1,.65,1.92c-.13.82-1.48-.83-2.07-1.43s-3.89-3.88-2.54-4.94c1.9-1.49,5.55,4.65,6,5.74,0,0,1,2.2.4,2.56s-1.73-1.15-1.86-1.29c-.91-1-6.1-5.79-5.08-7.48.51-.85,2.63.63,3,.86,1.28.88,6.2,6.67,3.31,8.14-2.06,1-8.53-8-6-9.65,3.72-2.36,8.15,4.71,8.54,7.38.12.87.28,3-.75,3.51-1.3.66-2.56-1.06-3.24-1.85-1.21-1.39-7.34-8.54-4.47-10.58,4.61-3.28,11.6,8.78,7.46,12.38-1.32,1.15-3.41-1-4.17-1.86-1.59-1.74-6.71-8-3.16-10.09,6.14-3.58,12.81,11,7.53,14.11-1.71,1-3.59-1.11-4.66-2.19-2.85-2.86-6.93-9.13-2.64-12.68,4.79-4,10.4,5.39,10.34,9.21,0,.73-.83,4.71-1.74,4.59"/><path class="cls-4" d="M2259.73,891.38a11.21,11.21,0,0,0-4.89-4.19h0c2,.4,4,2.63,5,4.16"/><path class="cls-4" d="M2259.48,890.54c2.26,2.35,2.23,10.15-1.79,10.72-6.7,1-12.56-7.74-9.86-13.67,1.28-2.81,4.92-2.13,7.19-1,4,2,6.74,7.14,4.47,11.34-3.08,5.68-11.73-1.08-9.78-5.95,2.76-6.86,9.89,5.36,3.53,2.23l0-.06c6.85,2.54-2.79-9-3.64-1.25-.48,4.41,6.9,10.17,9.71,5,2.23-4.12-.39-9.28-4.34-11.19-2.2-1.07-5.68-1.7-6.95,1-2.24,4.71.9,10.1,5.12,12.21,1.26.63,3.39,1.66,4.82,1.13,3-1.13,4.22-8.26,1.41-10.28"/><path class="cls-4" d="M2246.52,884.63c-.23-2.43-3-12.52-8.17-9.24-2.73,1.73,5.2,9.83,7.52,9.05,1-.34-.16-2.1-.43-2.58-1-1.65-4.35-6.58-6.9-5.6-1.4.54,4.1,6.36,4.86,6.72.12.06-.51-1.12-.52-1.14-.61-1.13-1.34-2.2-2-3.28-.25-.41-1.22-1.34-.74-1.25,1,.17,2.7,3.15,3.71,2.73.5-.21-1.67-2.09-2-2.21l.06-.12c5.41,1.13-1.2,4.33-1.51-.53,0-.71.76,1.21,1.12,1.82.68,1.13,2.09,2.69,1.94,4.08-.07.67-1.17-.7-1.65-1.18-1-1-4.27-3.93-3.46-5.66.44-1,2.23.13,2.65.38,1.43.81,6.75,5.68,5.34,7.68-.68,1-2.64-.52-3.16-.83-1.38-.84-8-6.49-4.82-8.35,5.46-3.18,8.09,6.84,8.28,9.59"/></g></g><g class="cls-1"><g id="Layer_2-2" data-name="Layer 2"><path class="cls-2" d="M194.32,201.13c28.3-29.69,47.4-65.91,69.38-100.1C285.12,67.72,312.25,36.3,329.76.71l0,0c-16.12,36-44.47,67.62-65.68,100.54-22,34.22-67.21,98.08-69.44,100.09"/><path class="cls-2" d="M454.51,34.66c-11.83,6.5-23.51,13.4-35.08,20.59,11.92-7.07,23.8-13.88,35.44-20.3Z"/><path class="cls-2" d="M325,117.7c-16,12-33.17,24.46-50.92,36.54,48.62-32.37,96-68.31,145.32-99C386.65,74.72,353.64,96.25,325,117.7Z"/><path class="cls-2" d="M274.11,154.24C249.8,170.43,225.17,185.7,199.82,199,224.46,186.5,249.8,170.78,274.11,154.24Z"/><path class="cls-2" d="M549.19,84.5c-1.3-.37-2.61-.74-3.91-1.13-72,21.43-143.93,42.9-214.57,68.37-38.82,14-81.4,30.75-121.37,44.62,66.39-21.66,135.34-48.4,201.27-69.71C456.59,111.79,502.92,98.21,549.19,84.5Z"/><path class="cls-2" d="M194.36,201.46q7.42-2.47,15-5.1-7.41,2.41-14.79,4.75Z"/><path class="cls-2" d="M194.93,202c-18.45,37.32-44.05,71-66.35,105.93-26.83,42.08-54,84.74-78.26,128.31-10.65,19.09-24.94,36.77-33.18,57l-.2-.09c12.43-34.95,42.54-74.38,62.92-106.32,16.62-26.07,31.45-53.29,48.17-79.31,22.43-34.89,47.65-68.56,66.45-105.69"/><path class="cls-2" d="M195.6,201.54c-6.22,35.27-27.67,74.3-41,107.16C126.72,377.45,106.16,448,75.41,515.78,61.92,545.51,50.84,576,38,606c-7,16.31-20,35.46-22.1,53.05l-.2-.06c1.21-17.71,14.38-37.14,21.33-53.39,12.83-30,23.89-60.52,37.43-90.25,31.53-69.24,51.11-137.64,79.43-207,13.5-33,34.43-71.21,41.32-106.53"/><path class="cls-2" d="M194.37,201c-9.41-24.06-13.14-55.17-17.2-80.48-5-31.43-11-62.66-16.41-94l.14,0c10.58,52.26,15.85,125.7,33.85,174.39"/><path class="cls-2" d="M195,201.77c-44.1-27.45-84.44-68.65-120.89-105.13C57.75,80.21,35.17,65.72,24.1,45l.06,0C36.23,65.13,58,79.8,74.51,96.28,111,132.72,151,174,195,201.61"/><path class="cls-2" d="M194.87,202.17c-37.2.54-76.71-5.11-113.82-6.43-18.2-.64-41.4,4.68-58.66-1.11l0-.15c20,4.75,42.94-.38,63.57,1,35.37,2.41,73.76,6.82,109.29,6.31"/><path class="cls-2" d="M183.65,861.27c-19.22,5.42-40.53,6-60.28,9.63-26.47,4.82-52.53,12.68-79,17.54-4.62.85-35.84,8.27-37.58,5.56l.09-.16c1.35,2.48,12-1.62,13-1.89,8-2.12,16.2-2.49,24.34-4,26.48-4.85,52.56-12.75,79.06-17.47,19.78-3.52,41-4.25,60.27-9.52"/><path class="cls-2" d="M182.86,861.25C150.58,913.82,113,966.89,76.48,1016.56c-13.41,18.22-24.1,40-40.47,55.79l-.29-.27c16.22-15.81,26.88-37.76,40.23-55.93,36.5-49.69,73.49-103,106.34-155.17"/><path class="cls-2" d="M182.9,861.46c-8,60.65-6.11,130.7-13.37,191.25l-.12,0c5.7-60.69,6-131.06,13.92-191.68"/><path class="cls-2" d="M183.21,861.56C143.12,723.7,66.81,596,.71,469.94l.2-.14C31.18,521.1,57.2,573.28,83.69,626.7c12.73,25.68,29.1,49.55,41.33,75.48,22.7,48.11,44.22,107.9,58.84,158.89"/><path class="cls-2" d="M183.1,862.17C169,740.85,137.43,613.37,93.87,499.63,76,453.08,55.7,400.61,25.38,360.45l.22-.15c30.69,40.11,50.95,92.34,68.87,139.05,43.63,113.72,75.43,241.06,89.15,362.43"/><path class="cls-2" d="M182.23,861.07c44.57,68.14,68.26,156.59,119.21,221.43l-.11.08c-52-63.89-74.82-152.81-119.16-221"/><path class="cls-2" d="M183.22,861.18c27.07,27.25,65.13,51.25,93.6,76.8,35,31.44,68.18,66.18,105.12,95.81.24-.06.47-.15.71-.2-37-29.84-70.29-64.47-105.45-96.06C248.74,912,186.33,865,183.11,861Z"/><path class="cls-2" d="M183.69,861.32c43.94,12.14,79.33,32.36,119.65,52.39,19.63,9.75,42.29,15,62.59,23.7,35.57,15.28,69.68,33.48,104.56,50.17,7.66,3.67,15.33,7.56,23,11.53.18-.12.37-.21.55-.32-7.78-4-15.56-7.94-23.34-11.67-34.89-16.69-69-34.92-104.59-50.18-20.28-8.7-42.89-14-62.51-23.7-39.28-19.44-76.57-43.56-120.3-52.37Z"/><path class="cls-3" d="M51.23,76.4c28.59,2.73,61.17,3.41,86.66-12.63,6.43-4.05,19.67-13.57,22.44-21.07l0,0c-2,7.62-16.15,17.44-22.32,21.32-16,10-35,12.12-53.35,14.15-10.68,1.19-23,1.85-33.35-1.9"/><path class="cls-3" d="M72.72,93.82c23.46,8.37,57.33,4,78.22-9.69,6.12-4,8.48-11.36,13.12-16.71,1.21-1.4,1-4.67,2.89-4.75l.15.11c-1.14-.36-.67,2.34-1.37,3.3-1.79,2.44-3.54,4.71-5.11,7.31-3.77,6.26-8.09,10.81-14.82,14-21.32,10.2-50.56,15.24-73.14,6.64"/><path class="cls-3" d="M106.68,128.78c21.87,2.22,35.62-5.26,51.81-19,3.81-3.23,8.85-7.81,10.85-12.55a15,15,0,0,0,.94-5.9c0-.49-.45-2.55-.36-2.41l.09-.07c.21-.25.67,2.13.71,2.53a15.21,15.21,0,0,1-1,6.09c-2.37,5.76-8.45,10.5-13,14.43-15.23,13.26-29.56,19.59-50.14,17.21"/><path class="cls-3" d="M144.78,161c12.05-4.6,23.08-13.56,27.85-26,1.71-4.48.42-10.49,2.45-14.68h.09c-1.82,4.34-.47,10.23-2.2,14.84-4.72,12.54-16,21.68-28.12,26.2"/><path class="cls-3" d="M167.78,182c11.6-3,11-10.66,15.34-19.25h.09c-3,9.27-4.06,16.91-15.4,19.67"/><path class="cls-3" d="M178.14,189.62c5.13-2.78,8-5.29,8.63-11.13h0c-.13,6.25-2.92,8.63-8.56,11.45"/><path class="cls-3" d="M184.73,194.12c3.22-3.16,4.3-4.35,5.73-8.15l.19.07c-1.16,4.27-2.19,5.19-5.76,8.59"/><path class="cls-3" d="M184.69,194.22c.23,2.69-.39,5.88-2,7.83l-.1-.12c.38-2.44,2.05-4.66,1.79-7.67"/><path class="cls-3" d="M183.47,201.93c4,5.24,4.67,7.61,3.51,13.62-.13.69,1.42-.63,2.09-.4,1.91.67,2.23,1.87,3.06,2.92v.11c-6.12-.19-5-10.79-9-16"/><path class="cls-3" d="M192.77,217.34c6-6.08,12-12,18.48-17.64a52.49,52.49,0,0,1,7.51-5.14c1.19-.72,5.05-1.7,3.69-2-2.58-.53-.86-5.24-.73-4.45.05.34-2.83-.24-3-.32-1.23-.54-8.08-7.72-6-7.58l.29.13a8.38,8.38,0,0,0,4.54,6.26c1.35.76,5-.05,4.44,1.38-.94,2.2,1,3.21.74,4.84-.18,1-7.65,4.59-8.53,5.2-7.88,5.5-14.52,12.78-21.33,19.48"/><path class="cls-3" d="M191.14,186.26a52.5,52.5,0,0,0,15.48-3.74c1.06-.41,4.44-3.26,5.28-3.15l.06.18c-4.38,5.15-14.54,7-20.8,7"/><path class="cls-3" d="M184.49,161.51c11,2.47,22,2.3,33,1,3.93-.47,7.56-5.51,10.85-5.91l.1.1c-14.29,7.47-27.19,9.07-44.09,5.21"/><path class="cls-3" d="M177.61,115.35c17.43,10.17,36.15,12,55.59,11.45a30.76,30.76,0,0,0,13.7-4.26c1-.61,5.1-3.67,6-3.35l0,.13c-1.26-2.61-4.91,3.12-7.55,4.31a40.59,40.59,0,0,1-16,3.76c-18,.49-36.12-2.41-52-11.79"/><path class="cls-3" d="M171.25,79.27c18.77,12.25,38.27,21.14,59,29.3,6.72,2.66,13,1.83,19.85,2.67,1.5.19,8.18-.94,8.08-.6H258c1.91-1.91-5.33,1.51-8,1.2-6.88-.82-13.26-.17-20-2.83-20.7-8.2-40.29-17.06-58.95-29.54"/><path class="cls-3" d="M168.23,62.76c23.78,12.76,51.32,20.32,77.5,26,3.86.83,21.93,5.7,25.07,1.36l.1.37c-1.83,4.33-22.44-.7-25.28-1.31-26.09-5.64-54-13.11-77.48-26.25"/><path class="cls-3" d="M168.5,54.08c32.16,15.67,68.41,19.74,103.71,16.78,6.42-.54,12.1-4.8,17.66-5.5l.16.22c-34.73,17.31-88.26,5.21-121.67-11.25"/><path class="cls-3" d="M33,59.19c13,29.4,11.42,61.33-7.39,88.78-6.42,9.36-17,9.22-24.45,16.27l-.06-.08c7-7.38,17.8-7.21,24.12-16.4C44.05,120.37,45.54,88.7,32.69,59.3"/><path class="cls-3" d="M60.26,84c25.28,43.81.35,92.53-37.95,118.77l-.08-.12C59.34,175.13,85.45,128.46,60,84.17"/><path class="cls-3" d="M82,105c16.56,20.4,21.79,40.87,11,65.81-3.17,7.34-8.4,16-14.07,21.65-1.25,1.25-4.51,5.61-6.71,3.91l.09-.25c1.25,1.86,5.62-3.37,6.24-4,5.63-5.61,10.83-14.23,14-21.47C103.43,146,98,125.56,81.77,105.23"/><path class="cls-3" d="M125.7,147.46c4.24,11.88,3.67,25,2,37.34-.21,1.6-6,15.65-7.88,12.85l.18-.21c2.88.5,6.12-8.58,6.76-11.06,3.11-12,2.66-27.11-1.37-38.7"/><path class="cls-3" d="M137.33,156.52c10.13,9.33,10.49,19.68,7.93,32.27-.94,4.6-6.79,15-12.72,11.55l.05-.17c6,1.45,11.13-6.6,12.22-11.48,2.78-12.49,1.87-22.44-7.73-31.88"/><path class="cls-3" d="M165.75,181c4,4.14,5.25,12,2.9,17.42-.91,2.1-6.65,7.94-8.43,3.45l.25-.29c10.55,2.51,10.16-14.52,4.93-20.18"/><path class="cls-3" d="M179.27,192.18c.27.95-1.07,14.38-4.47,10l.14-.28c4.5-.19,4.91-5.59,3.8-9.42"/><path class="cls-3" d="M297,55.81c3.05,15.72,10.33,30.27,25.11,38.5,5,2.76,9.95,6.35,15.54,7.67,1.31.3,11.19-.22,11.22,1l-.14.16c-.14-.6-10.08-.29-11.23-.56-5.65-1.33-10.76-5-15.75-7.78-14.81-8.39-22.26-23.11-25.2-39"/><path class="cls-3" d="M288.11,68.43c-.61,14.63,11,30.77,22.46,38.94a38.21,38.21,0,0,0,13.84,6.25c2.36.47,8.83-.29,7.08,1.35l.09-.24c1.91.51-5-.07-6.21-.33a44.1,44.1,0,0,1-13.78-5.51c-12.36-7.45-24.94-25.66-24-40.49"/><path class="cls-3" d="M267.8,97.47c.6,20.93,15.76,36,36.92,36.49l0,.55c-21.13,3.15-37.38-18.51-37.57-37"/><path class="cls-3" d="M254.6,115.08c1.27-3.74.68,4.76.63,5.44a34.9,34.9,0,0,0,1.45,13.56c4.19,12.25,13.58,14.92,24.51,18l0,.25c-10.52,3.7-23.15-10.89-25.53-19.62a36.83,36.83,0,0,1-1.1-12.29c.07-1.05,1.92-8.05.1-5.21"/><path class="cls-3" d="M247,130.2c-1.33,11.45,5.61,20.59,15.2,25.59,1.41.74,8.23,4.27,9.47,3.18l.29.24c-1.6,2.24-9.47-2.17-11.2-3.2-9.25-5.48-16.08-14.31-14.45-25.91"/><path class="cls-3" d="M225.74,154c1.49,4.39-1.4,9.9,1.16,14.23,3.59,6.07,11.54,4.65,13.95,8.07l-.16.2c-1.73-1.82-6,.07-8.64-1.66-8.53-5.64-6-12.05-6.16-20.6"/><path class="cls-3" d="M239.79,176c-2.7,4.62-4.33,7.49,0,11.07l-.18.22c-5-3.33-2.9-7,0-11.54"/><path class="cls-3" d="M266.41,160c-3.59,3.41-12.91,17.38-2.07,18.11v.21c-12,.78-1.73-15.42,1.83-18.6"/><path class="cls-3" d="M277.54,152.75c-4.93,7.58-7.23,12.9-1.84,19.58l-.1.18c-7.19-5.64-3.22-13.06,1.56-20"/><path class="cls-3" d="M302.66,136.17c-4.9,6.3-11.81,14-13,22.22-.7,4.69.31,10.29,6.53,9.27l0,.28c-5.94,1.95-8-3.59-7.58-8.34.84-8.81,8.29-17.19,13.74-23.61"/><path class="cls-3" d="M329.06,117.2c-4,7.74-8.94,22-2.28,30.2,2.15,2.64,5,1.61,7.39,3.4l-.12.22c-2-1.13-4.36-.25-6.43-1.65-9.62-6.52-2.68-25.59,1.09-32.34"/><path class="cls-3" d="M347.15,105.64c-3.72,10.73-8.84,23.2-2.9,34.19,1.63,3,5.16,3.46,6.66,5.82l-.05.06c-1.46-2.06-5.06-2.13-6.83-5-6.81-11-1.16-24.43,2.81-35.23"/><path class="cls-3" d="M509.81,117.22c-7.53,1.11-15.12-.77-22.72-3.42C494.51,116.78,502,118.79,509.81,117.22Z"/><path class="cls-3" d="M529.15,106.26c6.29-6.72,8.91-15.72,12.72-24l-.29-.1c-4.27,8-6.56,16.89-12.92,23.55-6.52,6.84-12.77,10.24-18.85,11.46C516.31,116.27,522.76,113.1,529.15,106.26Z"/><path class="cls-3" d="M487.09,113.8c-15-6-29.61-16-45.51-8a29.43,29.43,0,0,0-7.69,5.5l.44-.38C451.7,97.39,469.44,107.65,487.09,113.8Z"/><path class="cls-3" d="M433.89,111.26c-4.07,3.37-6.66,8.35-8.95,13.5C427.41,119.79,430,115.13,433.89,111.26Z"/><path class="cls-3" d="M327.25,152.16c-15.41,30.62,22.61,35.55,46.72,27.39,17.34-5.88,36.16-27.46,45.2-42.53,2.18-3.65,3.88-8,5.77-12.26-1.94,3.89-3.81,8-6.23,12-9,14.91-27.75,36.43-44.94,42.23-24.17,8.17-60.28,4-46.52-26.43Z"/><path class="cls-3" d="M333.32,151.69c-2.89,20.84,18.95,27.5,35.66,22.47,15-4.53,29.55-13.45,38.9-26.29,6.69-9.18,11.13-20,19.26-28.09,4.82-4.78,17.77-14.67,24.66-9.13l-.05.09c-7.56-4.07-19,4.18-24.21,9.38C419.45,128.29,415,139,408.25,148.2c-9.34,12.85-24.05,22-39.11,26.52-16.8,5-39.45-1.93-36-23.06"/><path class="cls-3" d="M182.89,244.25c11.26-14.87,24.29-30.33,38.75-42.08,1.64-1.34,17.72-16.32,17.89-15.79l-.12.09c0-.09-5.5,4.69-6.56,5.58-4.42,3.74-8.61,7.94-12.94,11.85a296.33,296.33,0,0,0-36.83,40.45"/><path class="cls-3" d="M166.32,280.26c21.33-23.33,44.52-45.09,66.22-68.09,6.52-6.9,15.66-13.51,21-21.31,1.22-1.82,6.95-13.12,7.06-11.51h-.05c.07-.34-5,9.36-6.71,11.77C248,199.48,238.13,207,230.9,214.23c-21.74,21.7-43.59,43.57-64.39,66.13"/><path class="cls-3" d="M156.1,304.88c26.36-30.89,57.7-58.13,86.11-87.19,9.19-9.4,15.84-19.31,23.16-30,2.29-3.35,5.17-6.32,7.69-9.37.85-1,2.62-6,3.31-5.46l-.08.12c-.58-1.76-1.29,3.51-2.34,5-2.4,3.48-5.64,6.44-8.08,10-7.37,10.73-14.07,20.65-23.3,30-28.48,29-59.78,56.2-86.22,87"/><path class="cls-3" d="M147.08,328.54c27-17.75,49.7-42.12,71.34-65.93,12.65-13.93,22.19-30.35,35.63-43.67,11.44-11.34,20.39-22.91,29.44-36,1.75-2.53,10.78-17.46,11.5-16.53l-.17.16c-.36-.5-2.88,4.52-3.51,5.81-2.24,4.52-5.69,8.57-8.54,12.71a231.35,231.35,0,0,1-28.26,34.31C241.07,232.68,231.41,249,218.8,263c-21.51,23.79-44.43,48.42-71.57,65.77"/><path class="cls-3" d="M61.11,418.36c-2.64-2.95,0-11.91.17-15.73.75-13.56-2.07-27.72-3.48-41.18-3.64-34.83-17.49-65.88-41.49-91.6l.1-.1c31.13,29,39.52,68.7,43.89,108.93.84,7.75,1.9,16.19,1.48,24-.23,4.19-2.65,11.89-.7,15.63"/><path class="cls-3" d="M63.69,410.05c18-38.53,5.48-96.84-19.2-129.53C34.9,267.81,22.62,260,11.64,249l0-.05c11.84,10.43,23.51,18.34,33.25,31.25,24.62,32.6,37.7,91.65,19,130"/><path class="cls-3" d="M78.78,384.26c15.29-55.52-2.59-125.72-41.39-168.32-8-8.78-18.07-15.36-26.79-23.36l.08-.1c9.09,7.61,19.23,14.22,27.21,23.07C76.29,258.14,95.11,328.94,79,384.34"/><path class="cls-3" d="M93.45,366c9.66-40.45,6.65-81.86-10.07-120.14-5.56-12.75-12.93-24.09-21.18-35.16-2.19-2.95-5-8.57-8.44-10.21-1.07-.52-6.39-4.11-6-4.3l.11.08c-1.8-1.33,3.74,2.51,5.76,3.49,3.92,1.89,6.68,7,9.21,10.48C71,221.42,78.44,232.79,84,245.63a188.17,188.17,0,0,1,9.83,120.53"/><path class="cls-3" d="M129.09,303.06c9.38-28.19-14-69.1-30.31-91.07a70.67,70.67,0,0,0-14.16-13.83c-1-.71-4.54-1-4.77-2.08l.2-.14c0,.05,6.34,2.44,7.21,3.42,4.19,4.73,9.76,8.42,13.32,14.06,14.41,22.9,39.7,61.5,28.82,89.79"/><path class="cls-3" d="M147.13,280.36c7.3-21.53-.82-48.27-12.43-66.9-3.09-5-14.95-11.11-16-16.39l.1-.07c.07.51,4.21,3.25,4.82,3.84,4,3.9,8.6,7.34,11.64,12.28,11.61,18.86,19.91,45.65,12.25,67.37"/><path class="cls-3" d="M160.51,256.25c0-16-4.39-29.87-11.4-44.12a35.57,35.57,0,0,0-7.31-10.44c-1.43-1.34-7.21-2.75-5.25-2.67l0,.11c-1.44.59,3.35.11,4.52,1.13a36.27,36.27,0,0,1,8.55,11.61c7.05,14.37,11.57,28.28,11.31,44.41"/><path class="cls-3" d="M169.52,244.76c3.58-12.74-1.45-24.62-8.26-35.46-1.2-1.91-8.43-6.75-8.65-8.05l.1,0c0,.05,8.34,6.51,9.14,7.76,6.73,10.65,12.28,23.21,7.82,35.66"/><path class="cls-3" d="M180,228.89c.27-4.68.4-12.24-2.14-16.67-1.28-2.23-9.35-7.47-9.55-9.09h0c.13.55,7.57,5.74,8.6,6.94,4,4.69,3.9,13.2,3.42,18.86"/><path class="cls-3" d="M62.87,416.46c25.45,3.08,22.11,50.56,24,67.76h0c-2.09-17,1-64.23-24-67.49"/><path class="cls-3" d="M65.5,415C98,401.34,99.78,437,96.25,457.91h0c3.1-20.8,1.63-56-30.61-42.74"/><path class="cls-3" d="M62.24,412.19c15.8-15.86,46.49-21.09,47.74,8.5.47,11.14-6.18,20.55-10.3,30.43l-.09,0c4-9.84,10.51-19.27,10.07-30.32-1.18-29.42-31.56-24-47.26-8.42"/><path class="cls-3" d="M64.53,406.69c7.85-6.88,16.56-15.87,27-18,20.6-4.15,26.78,23.07,22.64,37.29l-.12,0c3.56-13.89-2-41-22.33-36.95-10.4,2.06-19.15,11-27,17.78"/><path class="cls-3" d="M84.75,377.52c8.16-10.14,19.19-22.84,32.27-27.23,17.66-5.92,21.07,10.39,17.28,23.38l-.15,0c12.41-48.56-38.13-9.48-49.23,4"/><path class="cls-3" d="M56.66,566.93c7.85,18.33,34.09,36.38,43.48,6.56,6.81-21.63,6.35-36.32,1.57-58.52h0c5.57,22.21,5.87,37-1.11,58.77C91,603.64,64.18,586.26,56.39,567"/><path class="cls-3" d="M64,591.55c7.3,7.18,3,3.41,17.49,13,8,5.28,21.84-.83,26-8.46,9.33-17.32,1.94-38,3.62-56.4h.08c-.88,18.5,6.44,39.5-3.23,56.81-4.38,7.85-18.5,14-26.75,8.48-14.43-9.71-10.19-5.87-17.44-13.15"/><path class="cls-3" d="M98.3,644.77c32.39,16.6,28.63-4.28,42.25-7.22l0,.06c-17.46,8-14.37,22-42.46,7.39"/><path class="cls-3" d="M131.93,717.54c16.56-17.83,15.62-28,19.82-50.36h0c-2.83,22.51-3.22,33.25-19.64,50.68"/><path class="cls-3" d="M142.72,737.52c7.75-9.79,16.58-22,17.06-35.32l.11,0c.13,13.55-9,25.89-16.94,35.68"/><path class="cls-3" d="M148.47,760.94c8.88-7.17,18-26,18.19-38.39l.21,0c-.14,12.76-8.84,31.42-18.29,38.7"/><path class="cls-3" d="M158,765c4.45-12.19,2-5.66,7.57-19.55l.18.07c-5.43,14-3,7.4-7.35,19.71"/><path class="cls-3" d="M77.48,1015.45c28.14-8.2,64.21-1.82,78.27,27.9l-.14.09c-15-28.91-49.64-35.69-78-27.69"/><path class="cls-3" d="M117,965.38c32.17,13.61,46.14,49.74,45.27,83.19h-.05c.6-33.29-13.78-69-45.4-82.82"/><path class="cls-3" d="M132.59,950.83c27.81,26.5,37.65,55.17,29.38,93.25l-.28,0c8.05-37.84-1.81-66.53-29.26-92.95"/><path class="cls-3" d="M142.65,927c25.81,26.25,32.49,68.67,18.28,102.3l-.25-.08c13.63-34,7.18-75.22-18.27-101.94"/><path class="cls-3" d="M168.85,894.45c5.31,14.42,8.76,21.15,9,35h0c-.54-13.44-4.27-20.89-9.39-34.66"/><path class="cls-3" d="M175.47,923.76c12.47-5.09,34.56-5.23,43.67,6.42l-.12.16c-9.3-11.2-30.67-10.88-43.26-6.64"/><path class="cls-3" d="M173.24,994.19c17-17.77,48.35-35.12,70.25-13.85l-.11.12c-23-19.36-52-4.39-69.83,13.92"/><path class="cls-3" d="M164.91,1035.84c15-18.37,65.16-55.21,90.19-35.23l-.06.15c-34.15-17.14-65.52,17.08-90.29,35"/><path class="cls-3" d="M194.78,862.32c-4.28-6.35-15.43-16.75-15.28-25.1h0c.15,8.27,11.2,18.56,15.42,24.95"/><path class="cls-3" d="M225.05,877.27c-18-20.08-44.27-47.53-51.67-74.31l.08,0c10.71,27.24,32.44,52.52,51.79,74.15"/><path class="cls-3" d="M254.54,888.9C223,856.26,189.1,816.08,169.82,774.57l.05,0C192.15,816.12,223.2,854,254.64,889"/><path class="cls-3" d="M271,899c-30.73-32.76-56.66-69.81-78.92-108.75-8.6-15-20.57-29.34-27.55-45.13l0,0a1157.37,1157.37,0,0,0,65.12,103.13C242.39,866,258.37,881.39,271,899.09"/><path class="cls-3" d="M296.31,909.3c-20.14-28.25-44-53.66-63.18-82.85-15.11-23-27.45-47.67-41.46-71.3-7.58-12.81-17.83-24.13-26.27-36.35-2.54-3.67-8.46-9.6-7.84-14.27h.18c.9,6.2,7.14,11.94,10.48,17.1,7.39,11.41,17,21.49,24,33.23,20.67,34.88,40.49,69.36,63.45,102.83,12.17,17.75,30.14,33,40.52,51.72"/><path class="cls-3" d="M227.38,897.58c-15,4.1-14.51,21.78-11.48,34.12l-.12,0c-3.74-12.52-3.63-30.4,11.55-34.5"/><path class="cls-3" d="M260.4,920.78c-27.57,5.8-20.73,30-20.7,51.51h0c-.89-21.95-7.5-46.57,20.94-51.89"/><path class="cls-3" d="M270.22,933.52c-23.38,6.71-34.71,38-27.42,59.59l-.24.09c-8.7-21.36,3.74-54.11,27.5-60.23"/><path class="cls-3" d="M295.16,955.94c-29,4.73-34.81,40.26-37.36,63h-.09c1.11-22.92,8.19-59.86,37.63-63.47"/><path class="cls-3" d="M322.22,983.09c-28.72,3-43.64,42.23-43.24,66.87h0c-1.52-24.94,13.69-65.06,43.3-67.33"/><path class="cls-3" d="M342.54,997.5c-25.12,6.62-49.32,24.23-50.4,52.82H292c-2.29-29.39,26.33-47.67,50.93-52.79"/><path class="cls-3" d="M225.38,897.62c-.29-11.6,8.64-21.76,20.73-16.12l-.06.23c-11.85-3.82-20.44,3.85-20.06,16"/><path class="cls-3" d="M244.51,908.35c7.18-8.39,13.95-14.89,25.52-11l0,.13c-11.33-3-17.74,2.83-25,10.91"/><path class="cls-3" d="M257.42,923.36c3.41-11.39,13.66-19.52,25.41-17.47l0,.14c-11.42-1-21,6.36-24.89,17.22"/><path class="cls-3" d="M270.69,930.31c8.19-15.71,19.78-16.59,34.07-15.55l-.07.27c-13.85-.52-25.38.77-33.35,15.54"/><path class="cls-3" d="M294.49,954.7c-1.15-17.46,9.75-34.27,27.88-36.38l.06.24c-17.8,3.85-27.62,18.09-27.31,36.12"/><path class="cls-3" d="M324,984.77c-8.1-23.84-1.39-56.54,28.9-53.94l0,.44c-29.41,1.57-35.5,27.05-28.35,53.25"/><path class="cls-3" d="M340.13,997.4c.15-8.78.85-14.06,2.26-24.27,1.88-13.62,15.73-50.48,35-33.56l-.08.16c-18.9-15.15-32.16,20.54-33.94,33.5-1.22,8.85-1.82,15.87-2.59,24.16"/><path class="cls-3" d="M308.53,964.26c-4.13-15.34-11.51-45.2,12.05-48.15l0,.2c-21.63,7.42-16.37,29.12-11.69,47.7"/><path class="cls-3" d="M317.27,916.72c12.15-19.06,36.37-26.5,55.45-10.86,26.44,21.66,24,63.37,62.4,75.07,23.91,7.29,54.41-18.12,75.91,3.49a32.08,32.08,0,0,1,5.86,8.47c.32-.23.64-.46,1-.66a32.51,32.51,0,0,0-6.21-8.78c-22.16-21.57-51.88,3.89-76.14-3.44-38.15-11.53-35.88-53.42-62.28-75-19.4-15.83-44.24-8-56.3,11.44Z"/><path class="cls-3" d="M53.94,577.26c-2.55,40.29-21.55,76.2-44.41,108.66l-.15-.1c22-33,41.07-68.3,44.12-108.53"/><path class="cls-3" d="M56,573.27C69.12,647.2,57.59,758,2,813.32l-.17-.15C58.28,753.74,68.9,650.68,55.62,573.33"/><path class="cls-3" d="M71,609.52c5.82,89.32-5.4,199.22-68.17,269l-.07-.06c61-73.2,73.49-177.3,67.81-268.86"/><path class="cls-3" d="M82.26,630.48C96,700.4,99,756.56,71.86,822.54c-11.94,29.06-28,56-54.41,73.86l-.06-.08C100.4,835,99,720.43,81.91,630.56"/><path class="cls-3" d="M124.31,704.06c3.71,14.09,1.83,28.55,1,43-2.25,38.85-13.42,69.24-32.9,102.6-5.9,10.1-11.79,19.27-19.39,28.1-1.74,2-3.74,6.93-6.28,7.56v0c7.69-4.4,21.13-28.79,25.27-35.88,26.19-44.91,39-92.8,32.6-145.18"/><path class="cls-3" d="M138.8,742.86c7.1,32.69.81,73.31-11.75,104.32-2.13,5.26-10,24.37-17,25.49l0-.11c7.43-5.34,13-17.51,16.26-25.65a195.76,195.76,0,0,0,13.87-76.51c-.62-23.31.71-15.17-1.75-27.47"/><path class="cls-3" d="M153,774.77c8.16,32.24,8.48,73.85-16.5,99.51l-.09-.06c23.76-26.75,24.09-66.58,16.24-99.35"/><path class="cls-3" d="M167.67,813.27c1.61,10.53,3.47,42.64-9.79,50.88l-.11-.12c12.31-9.72,11.16-39,9.5-50.65"/><path class="cls-3" d="M142.93,866.13c3.73,3.24,20.78,18,15.35,26.38l-.08,0c3.87-9.1-10.92-22-15.51-26.06"/><path class="cls-3" d="M160.11,867.77c4.25,4.58,12,11,10.44,18.28l-.16,0c1-7.13-6.38-13.4-10.51-17.93"/><path class="cls-3" d="M125.61,870.66c15.52,15.28,20.38,47.3,3.72,63.25l-.05,0c15.82-16.58,11.59-47.41-3.84-63"/><path class="cls-3" d="M108.86,871.63c14.51,22.85,15.12,53,8.14,78.7-.75,2.77-4.19,21-8.15,20.57l-.09-.24c3,.54,7.62-20.35,8.18-22.47,6.57-24.84,5.27-54.27-8.33-76.3"/><path class="cls-3" d="M70.17,884.3c16.86,30.4,23.4,63.45,18.72,97.6-1.21,8.83-3.76,21.09-9.69,28.13l-.14-.1c5.38-7.56,7.89-19.16,9.21-28.14,5-33.81-2.2-67.09-18.44-97.26"/><path class="cls-3" d="M40.15,891.62c7.7,10.24,11.17,23.36,14.6,35.61,10.35,37,14.53,83.18-11.29,114.52l-.09-.07C67,1008.57,64.54,965.16,54,927.44c-3.41-12.2-6.8-25.11-14.16-35.55"/><path class="cls-3" d="M20.82,889.17c19,35.8,35.11,78.62,22.29,119.68-3.32,10.65-9.85,20.5-15.79,29.83l-.13-.07c5.63-9.44,11.9-19.28,15.16-29.85,12.64-41.11-3-83.39-21.78-119.38"/><path class="cls-3" d="M175.58,179.86a9.57,9.57,0,0,0-2,6.9c.78,19.4,24.73,11.16,13.94-2.94a14.45,14.45,0,0,0-7.76-4.71c-1.22-.26-7.12,2.2-4.43.65a8,8,0,0,1,3.59-1.5c3.17,0,7.38,2.89,9.22,5.27C197,195,182,207.25,174.51,193.58a14,14,0,0,1-1.51-6.85"/><path class="cls-3" d="M186.79,196.78c-.47,3.91.37,8.71,3.91,11.25,1.8,1.29,6.42,3.53,7.19-.21.82-4-.28-8.75-3.48-11.52-2.49-2.16-8.49,4.52-7.91.11.7-5.36,5.83-2.91,8.58-.7,3.51,2.83,5,8.5,3.7,12.8s-6.51,2.09-8.84.29"/><path class="cls-3" d="M176.6,196.92c-15.2,9-26.37-19.08-12.09-26.41l.09.15c-13.53,7.51-3.49,34,11.77,26"/><path class="cls-3" d="M179,198.71c-2.7,4.55-7.18,10.45-13.16,10.16s-16.89-6.15-13.41-13.74l.09,0c-1.8,8.11,8.56,15,15.93,12.82,4.63-1.38,7.72-5.46,10.27-9.3"/><path class="cls-3" d="M181.46,199.84c-7.2,7.17-14.49,21-7.14,30.87l-.11.07c-7.82-10.18-.54-23.92,7.1-31.28"/><path class="cls-3" d="M190.05,206c-14.13,14.46-5.68,39.41,15.69,40.43h0c-21.43-1-31.46-26.38-15.83-40.85"/><path class="cls-3" d="M197.22,200c2.64-5.32,10.36-4.28,15.3-3.17,11.31,2.53,20.6,8.36,17.44,21h0c2.9-15.44-20.65-28.49-32.77-18.12"/><path class="cls-3" d="M192.27,196.46c5.73-6.73,13.5-12.84,23.15-11.21,3.85.65,13.4,6,9.5,11.33l-.25-.09c1.52-6.31-5.66-10.22-10.95-10.57-8.9-.59-15.33,4.33-21,10.47"/><path class="cls-3" d="M194,191.48c9.5-4.81,25-22.93,7.64-30.16l.07-.15c18.9,6.64,2.49,26.1-7.5,30.79"/><path class="cls-3" d="M190.56,195.41c3.59-14,.45-33.45-15.45-38.77-4.88-1.63-10.52.12-15.56-.27v-.16c23.4-4.58,39.06,17.3,31.31,39"/><path class="cls-4" d="M175.42,180.27c-8.11,4.67,2.08,19.7,9.22,16.32,7.72-3.66-1-19.68-8-15.08s4.56,20.34,11.11,13.86c4.36-4.31-1.08-10.19-4.32-12.93-1.77-1.49-4.53-2.76-6.55-.85-3.74,3.54-.13,9.14,3.06,11.58,1.38,1.05,3.76,2.71,5.49,1.44,3.87-2.84-.8-9.37-2.94-11.64-1-1.07-3.13-2.32-4.61-1.37-5.12,3.3,3.05,14.46,7.86,11.87,1-.56.62-2.28.41-3.1-.66-2.56-2.87-9-6.56-7.23-4.6,2.25,1.19,11.27,5.18,10.75,1.36-.17.64-2.32.34-3-.61-1.47-3.42-7.15-5.86-5.55s3.24,7.5,5.13,5.66c1.34-1.31-2.86-6.85-4.3-5.68-1.88,1.53,1.83,5.82,3.65,5.53,2-.32-2.59-6.5-3.3-5.69-1.22,1.38,2.48,6,3.33,4.9.69-.86-1.53-4.48-2.33-4.1-.61.29,1.12,4.06,2.48,3.12,2.28-1.57-2.41-8.9-5.22-7.87-1.66.6-2.12,3.21-2.22,4.69-.27,4,2.4,7.5,6,9.1,1.47.65,3.84,1.54,5.24.24,4.88-4.56-5-16.11-10.72-12.53s1.72,15,7.68,12.94.06-12.19-4.37-12.58c-7.06-.62-2.14,10.23,2.94,10.41,4.38.16.49-7.27-1.47-8.12-1.32-.58,0,3.62,1,4.1l-.15.15c-1.5-.52-2.42-5.25-.6-4.43s5.37,6.45,2.67,8.25c-4.65,3.1-12.15-9.08-6.06-10.4,5.3-1.16,11.9,7.69,7.55,12-5.48,5.44-16-8.21-9.18-12.52,6-3.79,16.33,8.51,10.83,13-1.52,1.24-3.93.38-5.48-.3-4.26-1.89-9.23-9.84-4.35-13.89,3.61-3,8.69,6.72,6,8.07-1.83.9-3.31-3.43-2.37-3.59,1.23-.22,3.27,3.52,2.21,4.5-1.44,1.32-5.08-4.17-3.21-5.36,1.2-.76,5.61,5.76,3.11,6.17-2.11.35-5.85-4.47-3.53-6,1.84-1.19,6,4.59,4.3,6-2.33,1.93-8-4.5-5.16-6s8.19,6.4,6.08,8.61c-1.09,1.15-3.32-.51-4.11-1.19-2-1.73-5.67-7.84-1.65-9.63,3.78-1.69,6.24,4.65,6.87,7.36.25,1.05.55,2.78-.7,3.38-5.19,2.49-13.28-9-7.88-12.33,1.57-1,3.69.32,4.76,1.47,2.23,2.38,7.21,9.17,2.89,12-1.88,1.24-4.27-.35-5.75-1.5-3.27-2.53-6.93-8.39-3-12,2.61-2.37,5.57-.22,7.68,1.55,3.29,2.76,7.64,8.58,3.48,12.62-6.81,6.63-18.64-9.55-11.37-14.28,7.74-5,16.42,13.29,7.5,15.72-7.16,1.95-17.17-12.81-8.7-16.84"/><path class="cls-4" d="M187.62,196.26c-.71-.14-1.53,3.88-1.53,4.54,0,3.6,5.44,12.93,10.08,9,4.07-3.45.14-9.67-2.59-12.45-1-1-3-3.26-4.58-2.13-4.89,3.45,1.56,17.24,7.46,13.8,3.63-2.12-2.65-9.39-4.35-10.87-.66-.58-2.05-1.58-2.92-.76-3.8,3.58,3.06,15.21,7.38,12,2.58-1.88-3.5-9-4.56-10.26-.6-.73-1.86-2.59-3.12-1.88-.91.52-.69,2.65-.55,3.42.42,2.41,4.89,9.48,8.36,7.2,2.27-1.49-4.31-10.37-6-9.38-2.92,1.71,3.17,9.42,6,8.94,1.22-.21-4.54-6.93-4.93-7.38,0,0-1.28-1.75-1.76-1.3-1.53,1.44,5.09,9.49,6.49,8,.9-1-2.12-4-2.7-4.62s-2.09-2.22-2-1.41a4.48,4.48,0,0,0,.85,1.74,9.85,9.85,0,0,0,.81,1.11,10.48,10.48,0,0,0,.93,1.07c3.36,3.36-.17-2.57-1.43-2.32-.16,0,3.19,4,3.4,3.53.37-.74-.88-1.39-1.35-2.06s-5.48-7.61-6.2-6.53c-1.84,2.73,1.8,8.41,3.74,10,1.1.87,3.61,2,4.74.49,2.25-3-.8-7.45-2.76-9.67-.78-.88-2.41-2.85-3.83-1.76-3.35,2.57.38,8.88,2.76,10.47.88.59,3,1.79,4.08.73,2.07-2.07-3.06-7.86-4.24-9.24-.29-.34-1.88-2.65-2.82-1.52-2.15,2.59.65,8.23,2.78,9.91.81.63,2.69,1.78,3.78.9,3.29-2.66-3.4-11.16-6.3-11.68-2.43-.45-2.84,4-2.89,5.28-.15,3.42,1.47,5.86,4.93,6.3l0,.11c-4.91.08-5.75-5.18-4.73-9,.31-1.13,1.27-3.07,2.79-2.82,3.16.53,10,9.36,6.23,12.07-4.15,3-9.48-8.21-6.55-11.24,1-1.06,2.62,1.07,3,1.52,1.33,1.5,6.48,7.43,4,9.61-1.2,1.08-3.28-.08-4.29-.77-2.45-1.66-6.12-8.21-2.55-10.73s11.18,10.31,6,12.26c-4.41,1.65-10.82-7.87-7.8-11.36,1-1.12,5.79,5.85,6.3,6.59s1.84,1.87,1.11,2.31c-.94.57-3.38-3.79-3.23-3.79,1.75-.1,4.53,6,1.18,2.56a12.18,12.18,0,0,1-.92-1.1,10.33,10.33,0,0,1-.81-1.15,3.37,3.37,0,0,1-.64-1.92c.12-.82,1.47.83,2.06,1.43s3.89,3.88,2.54,4.94c-1.9,1.49-5.55-4.65-6-5.74,0,0-1-2.2-.4-2.56s1.73,1.14,1.86,1.28c.91,1,6.11,5.8,5.08,7.49-.51.85-2.62-.63-3-.86-1.27-.88-6.2-6.67-3.31-8.14,2.06-1.05,8.53,8,6,9.64-3.72,2.37-8.15-4.71-8.53-7.37-.13-.87-.29-3,.74-3.51,1.31-.66,2.56,1.06,3.24,1.85,1.21,1.39,7.34,8.53,4.47,10.58-4.61,3.28-11.59-8.78-7.46-12.38,1.33-1.15,3.41,1,4.17,1.86,1.59,1.73,6.71,8,3.16,10.09-6.14,3.58-12.81-10.95-7.53-14.11,1.71-1,3.59,1.11,4.66,2.19,2.85,2.86,6.93,9.13,2.64,12.68-4.79,4-10.39-5.39-10.34-9.21,0-.74.83-4.71,1.74-4.59"/><path class="cls-4" d="M175.61,191.91a11.27,11.27,0,0,0,4.89,4.19h0c-2-.4-4-2.63-5-4.16"/><path class="cls-4" d="M175.86,192.75c-2.26-2.35-2.22-10.15,1.79-10.72,6.7-.95,12.56,7.74,9.86,13.67-1.28,2.81-4.92,2.13-7.19,1-4-1.95-6.74-7.14-4.46-11.34,3.07-5.68,11.72,1.08,9.77,5.94-2.76,6.87-9.89-5.35-3.53-2.22l0,0c-6.85-2.53,2.79,9,3.64,1.26.48-4.41-6.9-10.17-9.71-5-2.23,4.12.39,9.28,4.34,11.19,2.2,1.07,5.68,1.7,7-1,2.24-4.7-.9-10.09-5.12-12.2-1.26-.63-3.39-1.66-4.82-1.13-3,1.13-4.22,8.26-1.41,10.28"/><path class="cls-4" d="M188.82,198.66c.23,2.43,3,12.52,8.18,9.24,2.72-1.73-5.21-9.83-7.53-9.05-1,.34.16,2.1.44,2.58.94,1.65,4.34,6.58,6.89,5.6,1.4-.54-4.1-6.36-4.86-6.72a6.45,6.45,0,0,0,.52,1.13c.61,1.14,1.34,2.21,2,3.29.25.41,1.22,1.34.74,1.25-1-.17-2.7-3.15-3.71-2.73-.5.21,1.68,2.09,2,2.21l-.06.12c-5.41-1.13,1.2-4.33,1.51.53.05.71-.76-1.21-1.12-1.83-.68-1.12-2.09-2.68-1.94-4.07.07-.67,1.17.7,1.65,1.18,1,1,4.27,3.93,3.46,5.66-.44.95-2.23-.13-2.65-.38-1.43-.82-6.75-5.68-5.34-7.68.68-1,2.64.51,3.16.83,1.38.84,8,6.49,4.82,8.35-5.45,3.18-8.09-6.85-8.28-9.59"/></g></g></g></g></svg>