<svg xmlns="http://www.w3.org/2000/svg" viewBox="0 0 130 190.69"><defs><style>.cls-1,.cls-2{fill:none;stroke:#000;stroke-width:10px;}.cls-1{stroke-linejoin:round;}.cls-2{stroke-miterlimit:10;}</style></defs><title>Ресурс 7</title><g id="Слой_2" data-name="Слой 2"><g id="Слой_2-2" data-name="Слой 2"><path class="cls-1" d="M125,65a60,60,0,1,0-93.63,49.68A19.86,19.86,0,0,1,40,131.2v28.93c0,14,11.47,25.82,25.48,25.55a25,25,0,0,0,24.52-25v-29.6a19.69,19.69,0,0,1,8.59-16.38A59.91,59.91,0,0,0,125,65Z"/><path class="cls-2" d="M90,133c0,4.71-2.49,9-6.56,12.22-4.57,3.61-11.14,5.87-18.44,5.87-8.61,0-16.21-3.15-20.71-8a15.74,15.74,0,0,1-3.85-6.76A13.23,13.23,0,0,1,40,133"/></g></g></svg>