<svg xmlns="http://www.w3.org/2000/svg" viewBox="0 0 187.79 174.66"><defs><style>.cls-1{fill:none;stroke:#000;stroke-linecap:round;stroke-linejoin:round;stroke-width:10px;}</style></defs><title>Ресурс 5</title><g id="Слой_2" data-name="Слой 2"><g id="Слой_2-2" data-name="Слой 2"><path class="cls-1" d="M75.45,5C36.54,5,5,28.26,5,57c0,18,12.47,33.92,31.39,43.23h0s-4,25.13-11.24,32.78c0,0,27.19-10,38.14-24.83a111.2,111.2,0,0,0,12.2.78c38.91,0,70.45-23.26,70.45-51.95S114.36,5,75.45,5Z"/><path class="cls-1" d="M171,71.42c7.4,7.86,11.76,17.49,11.76,27.89,0,16.7-11.23,31.4-28.26,40h0s3.59,23.26,10.12,30.34c0,0-24.48-9.23-34.33-23a97.77,97.77,0,0,1-11,.72c-17.5,0-33.35-5.38-44.82-14.07"/></g></g></svg>