<svg xmlns="http://www.w3.org/2000/svg" viewBox="0 0 5597.62 1563.71"><defs><style>.cls-1{fill:#e5007d;fill-rule:evenodd;}</style></defs><title>Asset 1</title><g id="Layer_2" data-name="Layer 2"><g id="_1" data-name="1"><path class="cls-1" d="M864.2,645.2C1160.27,539.8,1270.09,322.06,1159,53.8l-.45-1.11-1.15.31C876.57,126.87,769,345.7,864.2,645.2ZM1127,116.11c71,223.67-27.85,370.87-228,463.3C852.45,371.06,897.88,197,1127,116.11Z"/><path class="cls-1" d="M734.65,631.31c135.74-285.8,58.9-519-211.16-630.84L522.38,0l-.6,1C374.47,253.52,453.64,485.91,734.65,631.31Z"/><path class="cls-1" d="M716.26,939.75c-298.07,106.11-408.62,325.33-296.76,595.39l.46,1.11,1.16-.31c282.69-74.37,391-294.67,295.14-596.19Z"/><path class="cls-1" d="M631.31,844c-285.8-135.74-519-58.9-630.84,211.16l-.47,1.1,1,.6C253.52,1204.21,485.91,1125,631.31,844Z"/><path class="cls-1" d="M638.92,716.26C532.81,418.19,313.6,307.64,43.54,419.5l-1.11.46.31,1.16c74.36,282.69,294.67,391,596.18,295.14Z"/><path class="cls-1" d="M1592.67.08,2309.25,1535.9H2144.19l-239.93-504.81H1238.67l-238.5,504.81H829.05L1554.17.08Zm3507.39,1555q187.08-25.71,327.09-168.67,13-13.34,25-27.11V1535.9h145.44V400.08H5452.18V571.93q-12.84-14.58-26.81-28.69-171.66-173.78-413.9-174-75.63,0-143.47,17.28-158.51,35.58-281.06,159.69Q4414.74,720,4414.76,964.78c0,166.85,56.68,308,170.4,424.6q170.58,174.31,411.4,174.33a607.47,607.47,0,0,0,103.5-8.66Zm-2.45-1034.38A433.56,433.56,0,0,1,5225,570.34q103.18,59.35,164,167.55,61,108,61,228.88,0,119.25-61.31,228.52-61.5,109.08-165.06,169.69-103.74,61-222.46,61a453.83,453.83,0,0,1-101.88-11.42A441.29,441.29,0,0,1,4788.72,1368q-103.74-60.42-165.06-169.69-61.5-109.1-61.31-228.52,0-120.85,61-228.88t164-167.54c68.46-39.94,143.68-59.9,225-59.9a491.28,491.28,0,0,1,85.36,7.22ZM1573.42,322.36l-264.16,559h527.26l-263.1-559Zm929.76,77.72h145.45V930.2c0,129.41,7.14,218.18,21,267,20.68,69.52,61,124.42,119.8,164.71s129.4,60.6,211,60.6,150.8-19.61,207.84-58.82c56.68-39.58,96.26-90.92,117.65-155.08q21.93-65.78,22.1-278.43V400.08h149.73V956.94q0,234.75-54.9,353.29c-36.36,79.5-91.62,141.53-165.06,186.09q-110.16,67.4-276.28,67.39-166.32,0-277.37-67.39c-74.15-44.56-129.77-107.3-166.12-187.51Q2503,1188.48,2503.18,946.6V400.08Zm1263.81,0h149.72V549.49c93.89-99.39,230.68-183.33,388.87-187.79L4307.35,500c-130.7,0-386.93,131.07-386.93,396-5,218.32-3.71,421.61-3.71,639.94H3767Z"/></g></g></svg>